# xmcd CD database file
#
# Track frame offsets:
#	150
#	21770
#	34732
#	46510
#	61825
#	78122
#	91967
#	102547
#	115285
#	127179
#
# Disc length: 1950 seconds
#
# Revision: 6
# Processed by: cddbd v1.5.2PL0 Copyright (c) Steve Scherf et al.
# Submitted via: CDex 1.51
#
DISCID=77079c0a
DTITLE=Various Artist - Outlaws Super Hits
DYEAR=1996
DGENRE=Country
TTITLE0=Merle Haggard and Willie Nelson - Pancho and Lefty
TTITLE1=Waylon Jennings -The Eagle
TTITLE2=Johnny Cash - Ring of Fire
TTITLE3=David Allan Coe - Long Haired Redneck
TTITLE4=The Charlie Daniels Band - The Devil Went Down to Georgia
TTITLE5=Johnny Cash - Highwaymen
TTITLE6=Willie Nelson - Blue Eyes Crying in the Rain
TTITLE7=Johnny Cash - Folsom Prison Blues
TTITLE8=Johnny Paycheck - Take This Job and Shove It
TTITLE9=Merle Haggard - Are The Good Times Really Over
EXTD=YEAR: 1996
EXTT0=Willie Nelson and Merle Haggard
EXTT1=Waylon Jennings
EXTT2=Johnny Cash
EXTT3=David Allan Coe
EXTT4=The Charlie Daniels Band
EXTT5=Willie Nelson, Waylon Jennings, Kris Kristofferson, and Johnny Cash
EXTT6=Willie Nelson
EXTT7=Johnny Cash
EXTT8=Johnny Paycheck
EXTT9=Merle Haggard
PLAYORDER=
